/* XPM */
static char *pack1736603389[] = {
/* columns rows colors chars-per-pixel */
"128 128 41 1 ",
"  c #462E1F",
". c #482F1F",
"X c #46301F",
"o c #472F20",
"O c #482F20",
"+ c #473120",
"@ c #4A3121",
"# c #513624",
"$ c #553826",
"% c #543928",
"& c #5C3D29",
"* c #354720",
"= c #354820",
"- c #394E22",
"; c #3C5324",
": c #5F402C",
"> c #405725",
", c #435C27",
"< c #455E28",
"1 c #65432C",
"2 c #68452D",
"3 c #684730",
"4 c #7F5638",
"5 c #49652A",
"6 c #4E6C2D",
"7 c #506E2E",
"8 c #52712F",
"9 c #537330",
"0 c #575654",
"q c #585756",
"w c #595857",
"e c #595959",
"r c #726F6E",
"t c #73706E",
"y c #747473",
"u c #815739",
"i c #83593A",
"p c #A26D47",
"a c #A56F48",
"s c #A77149",
"d c #A9724A",
/* pixels */
"66666666,;5;5;,,<<,,,,,,,>>>>>>,66666666;<;<;,,;66666666<<<<,,,,,,,,,5,,55555555766666665555555599999999------;-55555555,,5,,,,,",
"66666666,,;,,,;,<<,<,55,>>>>>>>>66666666;<;<,,,,66666666<<<<,<5,5,,5,,,,55555555666666665555555599999999;--;----55555555,,,,,55,",
"666666665;;5;,;,,5,5,,,,>>>>>>>>66666666<<<;,,,;66666666<<,<,,5,,,,,,,,555555555666676665555555599999999----;---55555555,,,5,,,,",
"66666666;;5;,,,,,,,,,,5,>>>>>>>,66666666<;<<;,,,66666666<<<<<,,,,,5,5,,,55555555666766665555555599999998;--;--;-55555555,5,,,5,,",
"66666666;,;,>,,>,,,,5,,5>>>>>>>>66666666;<;<,;,,66696666<<,,<<<<5,,,5,,,55555555666666665555555599999999;----;--55555555,,,,5,,5",
"766666665;5;,,>,,5,,,,,,>>>>>>>>66666666;<,<,<<;66666666<<<<<<<<,,,,,,,555555555666666665555555589999998--------55555555,,5,,,,,",
"66666666,,,,;,>,,,,,,,,,>>>>>>>,66666666<<,<,,,,66666666<<<<<<<55,55,,5,55555555676667665555555599999999-------;555555555,5,,5,,",
"66666666,,;;,,,,,5,5,55,>>>>>>>>66666665;<;;;,;<66666666<<<<<;<;,,,,5,,,55555555666666665555555599999998;----;-;55555555,,,,,,,,",
"66766666;,;,>>>>66666666,>,,,,,,99999999+ + ++ +66666666;--;;--;899998985,,,,,,,66666666,,,,,,,,76666676>>>>>>>>66666665,,,;;,;,",
"66666666,;,;>>>>66666666,,;,,;;,99999999+       66666666-------;999999995,,,5,,5666666665,,,,,,,67666666>>>>>>>>67666666,;;;,;;;",
"76666666,>,;>>>>66666666>>,,,,,,99999999+      +66666665;--;;---89999998,,,,5,,,66666666,,,5,,,,66666666,>>>>>>>66666666;;,,;,,;",
"66666666>>;,>>>>66666666,,,,,;,,69999999+      +66666666-;----;;899999995,,5,,,566666666,,,,,,,,66666666>>>>>>>>66666666,;;;,;;,",
"66666666>>>>>>>>66666666,,,;;;,,99999999+      +66666666;-------99999998,5,,,5,,66666666,,,,,,,,66666666>>>>>>>>66666666,;,;;;;>",
"66666666,>>>>>>>66666666;,,,,,,,99999999+       66666666;-;--;-;89999999,,,5,,,566666666,,,,,,,,66666666,>>>>>>>66666666;,;;;,;,",
"66666666>>>>>>>>66666666,,,,,,;,99999996o      +66666666-------;999999885,,,,,,,66666666,,,,,,,,66677776>>>>>>>>66666666,;,;;>;>",
"66666666>>>>>>>>66666666;,;,,;,,99999996+       56666666;-------89999988,,,,5,,566666666,5,,,,,,66656565>>>>>>>>66666666>>;;>>>;",
",5,5,,,<+ XXXXX+69999999;;;;-;-;66666666+       ;5,;,,,,XX XX XX8866666655555555,,,5,5,,77777777+ ++++++****====,,,55,,,*.XXXXXX",
",,,,,5,,X      o89999999;--;;-;;66666666++     o,;,5,,;,       X6666666655555555,,,,,,,587777777X       ****=**=,,,,,,,,..      ",
",,,,5,<,X      X99999998;;;--;-;66666666+      o;5,;;,,;X      X6666666655555555,,,,,,,,77777777X       *******=,,,,5,5,.X      ",
"5,5,,,<,X      +89999998;--;;;-;66666666+      o;;,,;,,,X      X66666666555555555,,55,,577777777+      X=******=,,,5,,,,X.      ",
",,,,<,<,X      +89999999;;;;--;;66666666+       ,;5;,;5;X      X6666666655555555,5,,,,,577777787+       =******=5,,,,5,,X       ",
",,,5<<<<X      o89999998;;--;;-;66666666+      +,,;,>,;,X      X6666666655555555,,,5,,,,78778885+       *=*****=,,5,,,,,X    X. ",
",,,55<,,       X99999998;;;;;;;;66666666+       ;55;,,,>       X6666666655555555,5,,,,,588777787X       *******=,5,,,,5,X       ",
",,,,,,,,+o+o+oo+88888899;--;---;66666666+       ;;5;>>>>X       566666665555555,,,,,5,,,57777775+o +.+o+*******=,,,,,,,,.. .X. .",
"XXXXXX .0qqeqqeq+X@XXXXX*XXX XXX<;5;<;<<X       XXXXX XX     .  --------*XXX XXX,>>>,>>>*.XXXXX.44ii4i44X  X XX XXX XXX.$&$&&&&$",
"..     .eeeeeeeeo   . .  X     X;<;5;5<;X       XX              -------=XX      >,>>>>>>X.XX   .iiiiiiii.               &&&&&&&&",
"X    X Xweeweeeq+              X;<;<<<;5X  o    X               =---=---X      X>,>>,>>>X X   X.4iiiiii4.              .&&&&&&&&",
"X      .weeeeeeq@              X<;<<;<<;      o                 -------=   X   X>>>,>>>>X      .iiiiiiii.               &&&&&&&&",
"       .weeeeeewo              X<;<;;<,>X                       =-------X      X>>>>>>>>X      .iiiiiiiiX..            .&&&&&&&&",
"       Xweeeeeeq+          X   X<;;<<;,,X                .      ---=-=-=       X>>,>>>>>X      .4iiiiii4.          .   .&&&&&&&&",
"  .    Xqeeeeeewo   X           ;<<;<;,;                ..    . =-------X      X>>>>>>,>   . . .uiiiiiiiX.            ..&&&&&&&&",
" .X ...Xweeweewq@ @ X......XXXXX<;<<;<,>@. O..X ooooooo@.. .  ..-=--=--=X      X>>>>>>>>.XXXXX .4i4iiii4XX......      ..&&&&&&&&",
"&&&&&&$&uiiiiiiuiuuiuuiiasaasssa. XX XXo&&$&&&&%:11:11111111&111X  XX   ##$#$###X X X o+qeqqwwqq22211212uuuuuui4X      +4uiiui4i",
"&&&&&&&&iiiiiiiuiiiiiiiiddddddds@.  O  .&&&&&&&&1111111111111111X       $$#$##$$o      oqeeeeeee11111111iiiiiiiiXXX    oiiiiiiii",
"&&&&&&&:uiiiiiiiiiiiiiiisddddddaX      X&&&&&&&&1111111111111111        #$$#$#$#o      oqeweweew11111111iiiiiiiuX       uiiiiiii",
"&&&&&&&:uiiiiiiiiiiiiiiisdddddda@       &&&&&&&&1111111111111111X      .$##$#$#$o  o   oqeeeeeew11111111uiiiiiiiX      @uiiiiiii",
"&&&&&&&&iiiiiiiiiiiiiiiisdddddds@.     .$&&&&&&&1111111111111111.      .##$##$##  o    oeeeeeeew11111112iiiiiiiiX.     Oiiiiiiii",
"&&&&&&&:iiiiiiiiiiiiiiiisdddddda.       &&&&&&&&1111111111111111      . $#$#$#$#       oqeeeeeew11111111uiiiiii4.      Oiiiiiiii",
"&&&&&&&&iiiiiiiiiiiiiiiiddddddda@      .&&&&&&&&1111111111111111.     ..#####$##    o  oeeeeeeee11111111iiiiiiiiO.     Oiiiiiiii",
"&&&&&&&&4iuiiiuuuiuiiiuisdssssda@. .oo O&&&&&&&&:1111111&111111&. X   ..$$$$$#$#o ooooooqqqewwqq11111112uiuuuii4@OOOOO.@iiiiiiii",
"i4iuiiu4@oo+O@ @&&&&&:&:iiiiiiii1:11::11:1111111&&&&&&&&O oOOOOO       X11:11111:11111:1O++oo+oO:&%:&&&&11111212iiuiuiuisdssssds",
"iiiiiiiio       &&&&&&&&iiiiiiii2111111111111111&&&&&&&&             X .1111111111111111       .%:&&&&&&11111111uiiiiiiidddddddd",
"iiiiiiiiO       &&&&&&&&iiiiiiiu1111111111111111&&&&&&&&.  o           .:111111111111111O      o&&&&&&&&11111112iuiiiiuisddddddd",
"iiiiiiiuO       $&&&&&&&iiiiiiii2111111111111111&$&&&&&$                111111111111111&.      .%&&&&&&&11111111iiiiiiiisddddddd",
"iiiiiiiio      X&&&&&&&:iiiiiiiu1111111111111111&&&&&&&&.              X1111111111111111...   X.&&&&&&&&11111112iiiiiiiisddddsdd",
"iiiiiiii@      .&&&&&&&&iiiiiiii1111111111111111&&&&&&&&.      O      .X1111111111111111XX.    .&&&&&&&&11111111iiiiiiiisddddddd",
"iiiiiiiu        &&&&&&&&iiiiiiiu1111111111111111&&&&&&&&    O           111111111&111111XX .  ..&&&&&&&&11111111iiiiiiiidddddddd",
"iiiiiiii@ @ +@ @&&&&&&&&uiuiiuuu2212221111111111&&&&&&&&@@@OOOOO@.@@X@@@1121212122221221........&&&:&&&&11111111uuiiiiiiadssssss",
"ddssssdsiiiiiiii2111111111121213rtyyyyyr1111111111111113aaaaaadaaaadaasaiiiiiuiiasssssssssaassaaiiuuuiuu1111111121211212iuiiiiii",
"dddddddsiiiiiiii2111111111111111yyyyyyyt1111111111111112ddddddddddddddddiiiiiiiiddddddddddddddddiiiiiiii1111111111111111uuiiiiii",
"dddddddsiiiiiiii1111111111111113yyyyyyyy3111111111111112addddddddddddddsiiiiiiiisdddddddddddddddiiiiiiiu1111111111111112uiiiiiii",
"dddddddsiiiiiiii1111111111111111yyyyyyyy1111111111111112dddddddddddddddsiiiiiiiisddddddddddddddsiiiiiiii1111111111111111uiiiiiii",
"dddddddsiiiiiiii1111111111111113yyyyyyyy11111111111111:2addddddddddddddsiiiiiiiisddddddddsdddddsiiiiiiiu1111111111111112iiiiiiii",
"dddddddsiiiiiiii2111111111111112yyyyyyyy1111111111111112addddddddddddddsiiiiiiiidddddddddddddddsiiiiiiii2111111111111111iiiiiiii",
"ddddddddiiiiiiii111:111111111111yyyyyyyy1111111111111112ddddddddddddddddiiiiiiiisddddddddddddddsiiiiiiiu1111111111111112iiiiiiii",
"ssssssssiiiiiiii2122222221122123tyytyyyy3131121311111112adaaddaaadadasdaiiuuiiiissssssddssssssssiiiiuiiu2111111:11111111iiiiiiii",
"iiiiiiiiiiiiiiiiadadaadadasassaaiiiiiiiiiiiiiiiu1111111122222222iiiiiiii@@oo@ O@iiiiiiii212121211&&&&&&&&&&&&&&&1111111122212121",
"iiiiiiiiiiiiiiiiddddddddddddddddiiiiiiiiiiiiiiii1111111111111111iiiiiiiuO      Ouiiiiiii11111111&&&&&&&&&&&&&&&&1111111111111111",
"iiiiiiiiiiiiiiiiaddddddddddddddsiiiiiiiiiiiiiiii1111111111111111iiiiiiii@      .uiiiiiii21111111&&&&&&&&&&&&&&&&1111111111111111",
"iiiiiiiiiiiiiiiidddddddddddddddsiiiiiiiiiiiiiiii2111111111111112iiiiiiiu@      @uiiiiiii21111111&&&&&&&&&&&&&&&&1111111111111111",
"iiiiiiiiiiiiiiiiaddddddddddddddsiiiiiiiiiiiiiiii1111111111111111iiiiiiiu+      ouiiiiiii21111111$&&&&&&&&&&&&&&&1111111111111111",
"iiiiiiiiiiiiiiiidddddddddddddddsiiiiiiiiiiiiiiii2111111111111111iiiiiiiu@      ouiiiiiiu21111111&&&&&&&&&&&&&&&&1111111111111111",
"iiiiiiiiiiiiiiiiddddddddddddddddiiiiiiiiiiiiiiii1111111111111111iiiiiiii       ouiiiiiii11111111&&&&&&&&&&&&&&&&1111111111111111",
"iiiiiuiuiiiiiiiiadadaadadssdasdaiiiiiiiiiiiiiiii11111111:11111&14uiiiui4@ oooo @uiiuuiuu21111111&&&&&&&&:&&&&&:&&11:111113112112",
"$$$$$$#&11121122iiiiiiiiiiiiiiiiiiiiiiiu2121111111111111. .. X..&&&&&&&&1111&111211211211111111111111112uiiiiii4@ oo o @4iiiuiui",
"#$#$####11111111iiiiiiiiiiiiiiiiiiiiiiiu1111111111111111X X     &&&&&&&&11111111111111111111111111111111iiuiiiii+o     +iiiiiiii",
"#$$#$#$$11111112iiiiiiiiiiiiiiiiiiiiiiiu211111111111111&.      .&&&&&&&&11111111111111111111111111111112iiiiiii4o      @4iiiiiii",
"$##$#$#$11111111iiiiiiiiiiiiiiiiiiiiiiii1111111111111111.       &&&&&&&&11111111111111111111111111111111iiiiiiiio      ouiiiiiii",
"#$#$$#$#11111111iiiiiiiiiiiiiiiiiiiiiiiu2111111111111111X      .&&&&&&&&11111111111111111111111111111112iiiiiiiu+      oiiiiiiii",
"$#$####$11111111iiiiiiiiiiiiiiiiiiiiiiii1111111111111111.      .&&&&&&&&11111111111111111111111111111111iiiiiiiuO      @uiiiiiii",
"#$#$#$##11111111iiiiiiiiiiiiiiiiiiiiiiiu1111111111111111        &&&&$&&&11111111111111111111111111111111iiiiiuuiO       uiiiiiii",
"$#$#$$$#1:111111iiiiiiiiiiiiiuiuiiuuuii4111111111&111111. .X . .&&&&&&&&11111111121221111212121111221222iiiiiiii@OO@ @ @uiuiuiuu",
"11111111O OOoo@o........$$$$$$$$12111121@ XOoo@o.... . .&11111111111111111111111iiiiiiiuiiiiiiiiasasasssssssssdsi4ii4ii421112112",
"11111111        ..      #$######11111111         .     .111111111111111111111111iiiiiiiiiiiiiiiiddddddddddddddddiiiiiiui11111111",
"11111111o       .       $#$#$$#$11111111o              X111111111111111111111111iiiiiiiiiiiiiiiisddddddddddddddsiiiiiiii11111111",
"11111111o               #$#$$#$$11111111o               111111111111111111111111iiiiiiiiiiiiiiiidddddddddddddddsiiiiiiii21111111",
"1111111&o         .   . ##$#$##$11111111@              .111111111111111111111112iiiiiiiiiiiiiiiisddddddddddddddsiiiiiiii11111111",
"11111111O      .       .$##$#$#$11111111     .     .   .111111111111111111111111iiiiiiiiiiiiiiiisddddddddddddddsiiiiiiiu11111111",
"11111111O     .         ########11111111          X..X  111111111111111111111111iiiiiiiiiiiiiiiidddddddddddddddsiiiiiiii21111111",
"11111111@@O@OOOOOO......$&$$$&$&11222111@ oooO.@.X@....X121212111111111111221222iiiiiiiiuuuiuuiuadsssssssssssassiiiiiiui11111111",
"11111112aaaaaadaiiiiiiiiddadaadsassssssa211:11:1psssassaiuuuuiiu.. ..  .asssssssssssssda@.OOO@o@iiiiiiii1&&&&&&1yyyyyyyy1&&&&&&&",
"111111&2ddddddddiiiiiiiiddddddddddddddds21111112ddddddddiiiiiiii.      .sdddddddddddddds.       uiiiiiii&&&&&&&&yyyyyyyy&&&&&&&&",
"11111112adddddddiiiiiiiiadddddddddddddds21111111sddddddsiiiiiiiu       .adddddddddddddds@      @iiiiiiiu&&&&&&&&yyyyyyyt:&&&&&&&",
"11111112ddddddddiiiiiiiiddddddddddsdddds21111112sdddsddsiiiiiiiu.    ...sdddddddddsdddda.       iiiiiiii&&&&&&&&yyyyyyyy&&&&&&&&",
"11111111sdddddddiiiiiiiiadddddddddddddds11111112sdddddddiiiiiiiuO      Xaddsddddddddddda...   . iiiiiiiu&&&&&&$&yyyyyyyy&&&&$&&&",
"11111112sdddaddaiiiiiiiidddddddddddddsds21111112sdddddddiiiiiiiuO    . @sdddddddddddddda. .  . .uiiiiiii:&&&&&&&yyyyyyyy&&&&&&&&",
"11111111sdddddddiiiiiiiiddddddddddddddds11111111ddddddddiiiiiiii.      .sdddddsdddddddds..    ..iiiiiiii&&&&&&&&yyyyyyyy&&&&&&&&",
"11&11111pdassasaiiiiiiiiadadaadassssssds21222212ddddddddiiiiiiiu@o+oo@O@assssssssssssssa. .   ..4iiiuiiu&&&&&&&&yyyyyyyy&&&&$&&&",
"O..X. ..#$$#$$#$uiiiiiiiiiiiiiiiiiiiiiiiadsasssaiiiiiiii&1&1&1&:qeqqqqeq&&:&::&&&:&:&:1&11111&11$$$$$$$$&&&&&&&&&&&&&&&&+o  XX X",
"        @#@#####iiiiiiiiiiiiiiiiiiiiiiiiddddddddiiiiiiii&$&&&&$&qeeeeeee&&&&%&&&&&&&&&$&11111111####$##$&&&&&&&&&&&&&&&&oo      ",
"        ########iiiiiiiiiiiiiiiiiiiiiiiisddddddsiiiiiiii&&&&&&&:qeeeeeew&&&&&&&&&&&&&&&&11111111$$#$#$#$&&&&&&&&&&&&&&&&        ",
"        ##@##@##iiiiiiiiiiiiiiiiiiiiiiiiddddddddiiiiiiii1&$&&&$:eeeeeeew&&&&&&&&&&&&&&&&11111111$#$#$#$#&&&&&&&&&&&&&&&&o      o",
"        ########iiiiiiiiiiiiiiiiiiiiiiiisddddddsiiiiiiii&&&&&&&:qeeeeeew&&&&&&&&&&&&&&&&11111111$#$##$#$&&&&&&&&&&&&&&&&        ",
"        ###@@###iiiiiiiiiiiiiiiiiiiiiiiisddddddsiiiiiiii&&:$&&&&eeeeeeew&&&&%&&&&&&&&&&&11111111#$#$$#$#&&&&&&&&&&&&&&&&        ",
"        .#######iiiiiiiiiiiiiiiiiiiiiiiidddddddsiiiiiiii&&&&$&$:qeeeeeew&&&&&&&&&&&&&&&&11111111$#$#$##$&&&&&&&&&&&&&&&&        ",
"o+X@....######@#iiiiiiiiiiiiiiiiiiiiiiiiasssssdsiiiiiiii&&&&:&1:qewwqqeq:&&&&&&&&&&&&&&:11111111$$#$#$#$&::&&&:&&&&&&&::@X@@.@@@",
"uuiuuui4O  o   .#$######%:::&&:&&&&&&:&1uiiiiiiidddddddsiiiiiiiu&&&&&&&&&&&&&&&&uiuuuuiu&&&&&&&&&&&&&&&&iiiiiuiissssssssssssasaa",
"iiiiiiiio       #@@##@##&&%&&&&&&&&&&&&&uuiiiiiidddddddsiiiiiiii&&&&&&&&&&&&&&&:iiiiiiii&&&&&&&&&&&&&&&&iiiiiiiisddddddddddddddd",
"iiiiiiiuo       #@#####@&&&&&&&&&&&&&&&&iiiiiiiidddddddsiiiiiiiu&&&&&&&&&&&&&&&&uiiiiiiu&&&&&&&%&&&&&&&&iiiiiiiisddddddddddddddd",
"iiiiiiiuo       ########&&&&&&&&&&&&&&&&iiiiiiiiddddddddiiiiiiii&&&&&&&&&&&&&&&&uiiiiiii&&&&&&&&&&&&&&&&iiiiiiiisdddddsddddsdddd",
"iiiiiiiiO     oo#####@##&&&&&&&&&&&&&&&&uiiiiiiisddddddsiiiiiiiu&&&&&&&&&&&&&&&&uiiiiiii&&&&&&&&&&&&&&&&iiiiiiiisddddddddddddddd",
"iiiiiiiuo      o@#######&&&&&&&&&&&&&&&&uiiiiiiissdddsdsiiiiiiiu&&&&&&&&&&&&&&&&uiiiiiii&&&&&&&&&&&&&&&&iiiiiiiisddddddddddddddd",
"iiiiiiiio     oo########&&&&&&&&&&&&&&&&iiiiiiiiddddddddiiiiiiiu&&&&&&&&&&&&&&&&iiiiiiii&&&&&&&&&&&&&&&&iiiiiiiiddddddddddddddds",
"iiiiiiiuo    ooO##@###@#&&1&&&&&&:&&&&&1uuiuiuuissdsssssiuiuuuu41:&&&&&&&$&&&&&&iiiiiiii&&&&&&&&&&1&&&&&iiiiiiiisssdssssssdsssss",
"ddddssds$#####@#&&%&&&&&uuuuuuiueewewwew$$$$$$#&iiiiiiii1&:&&&&14ui4i4i4O  X.  @dddadddp########uuuuiiiisdssssdsiiiiiiiiiiiiiiii",
"ddddddds$@@##@##&&:&&&&&iiiiiiiueeeeeeew$###$##$uiiiiiii:&&&&&&&iiiiiiiio      @ddddddda#####O##uiiiiiiiddddddddiiiiiiiiiiiiiiii",
"ddddsdss$#####@#&&&&&&&:uiiiiiiiewweeeew$$#$#$#$iiiiiiiu&&&&&&&&iiiiiii4O o    @addddddd######O#iiiiiiiisddddddsiiiiiiiiiiiiiiii",
"ddddddds$@######&&&&&&&&iiiiiiiueeeeeeew$#$#$##$iiiiiiii&&&&&&&&4iiiiiiio      @adddddda###O####iiiiiiiisddddddsiiiiiiiiiiiiiiii",
"ddddddds$@###@##&&&&&&&&iiiiiiiieweeeeeq$#$##$#$iiiiiiiu&&&&&&&1iiiiiiii+      @adddddds$#######uiiiiiiisddddddspiiiiiiiiiiiiiii",
"ddsdddds$######@&&&&&&&&iiiiiiiieeeeeeee$$#$#$$$iiiiiiii:&$&&&&&iiiiiiiuO     o@addddddp$O####@#uiiiiiiisddddddsiiiiiiiiiiiiiiii",
"dddddsds$##@#@##&&&&&&&1iiiiiiiiweeeeeeq$#$#$##$uiiiiiiu&&&&&&&&iiiiiii4Oo    o@sddddddd$####O##iiiiiiiidddddddsiiiiiiiiiiiiiiii",
"sssssssp$@######$&&&&&%&iiiiiiiiwwwqeqeq$####$#$uiuuuiiu&&&&&&$:iiiiiiii@OO@Oo@@pdsssdda$@######uuuiuiuissssssdsiiiiiiiiiiiiiiii",
"#%%%$#$########@oo     @addsssda11111111oooo . O&&&&&&&&O ..   @sdsssssssasaasspiiiiiiii1&&&&&&&&&&&&&&:iiiiiiiiiiiiiiii21112112",
"##@@######@#@###oo     @adddddds21111111oooo  o &&&&&&&&       @sdddddddddddddddiiiiiiii1&&&&&&&&&&&&&&&iiiiiiiiiiiiiiiu11111111",
"#######@@#######       @adddddds21111111o      .&&&&&&&%.      .sdddddddddddddddiiiiiiii&&&&&&&&&&&&&&&&iiiiiiiiiiiiiiii11111111",
"#@#@######@####@   o   @adddddds11111111o       &&&&&&&&       @sdddsddddddddddsiiiiiiii&&&&&&$&&&&&&&&&iiiiiiiiiiiiiiiu21111111",
"##@###@#####@###    o  Oadddddds21111111o       &&&&&&&&X      @sddddddddddddddsiiiiiiii&&&&&&&&&&&&&&&&iiiiiiiiiiiiiiiu11111111",
"#########@######       @adddddds21111111o    o  &&&&&&&&X.     @sddddddddddddddsiiiiiiiu&&&&&&&&&&&&&&&&iiiiiiiiiiiiiiiu11111111",
"#@##@##@##@####@       Oadddddds21111111        &&&&&&&&       @sdddddddddddddddiiiiiiii&&&&&&&&&&&&&&&:iiiiiiiuiiiiiiii11111111",
"##%@############OOOOoOo@sdddddds31111121o oooo o&&&&:&&&O ...  @psdsssssssssssssiuiuuuuu:&&&&&&&&&&&&&&&uiuiuuuuiiiuiuiu11111111",
"###@##@%111:1111uiiiiiiidddddddsiiiiiiii11:1111:yyyyyyyr$####$#$iiiiiiiiiiiiiiii:&&&&1&&###########.####&&&&&:&&Oo@ @ ...   ....",
"@#######11111112iiiiiiiisddddddsiiiiiiii11111113yyyyyyyy$$$##$$$iiiiiiiiiiiiiiii&&&&&&&&@####@##########&&&&&&&&        ..      ",
"########:1111111uiiiiiiisddddddsiiiiiiii31111111ryyyyyyy$##$$##$iiiiiiiiiiiiiiii&&&&&&&&###@#@@##.##@#@#$&&&&&&&                ",
"##@###@#11111111uiiiiiiisddddddsiiiiiiii11111113yyyyyyyy$#$##$#$iiiiiiiiiiiiiiii&&&&&&&&################&&&&&&&&X               ",
"########11111111iiiiiiiisddddddaiiiiiiii11111111yyyyyyyy%$#$$#$$iiiiiiiiiiiiiiii:&&&&&&&######@####@##@#&&&&&&&&.     .         ",
"#@##@###11111111uiiiiiiisddddddsiiiiiiii11111111yyyyyyyy%#$##$#$iiiiiiiiiiiiiiii&&&&&&&&@#######@#######&&&&&&&&                ",
"###@#@@%11111112iiiiiiiisddddddsiiiiiiuu31111113yyyyyyyy#$$#$##$iiiiiiiiiiiiiiii&&&&%:&&##@#@##@########&&&&&&&&X               ",
"#@######11111111iiiiiiiisddddddsiiiiiiuu11111111yyyyyyyy$$#$#$$$iiiiiiiiiiiiiiii&&&&&&&%############@##@&&&&&&&&X         .     "
};
