/* XPM */
static char *sand1736603390[] = {
/* columns rows colors chars-per-pixel */
"128 128 74 1 ",
"  c #B6AF7A",
". c #BBB47E",
"X c #BEB87F",
"o c #BEB681",
"O c #BFB881",
"+ c #C3BC85",
"@ c #C6BE8A",
"# c #C8BF8E",
"$ c #C9BF91",
"% c #C6C087",
"& c #C7C089",
"* c #CAC48D",
"= c #CEC88F",
"- c #CDC592",
"; c #CFC892",
": c #CFC498",
"> c #D0C796",
", c #D3CC95",
"< c #D1C699",
"1 c #D5CD9A",
"2 c #D8CF9E",
"3 c #D6D097",
"4 c #D7D099",
"5 c #DAD39D",
"6 c #DED89F",
"7 c #D7CCA0",
"8 c #D9CEA1",
"9 c #D7D1A3",
"0 c #DDD4A2",
"q c #DFD8A2",
"w c #DED5A9",
"e c #DED9AB",
"r c #DFDAB2",
"t c #E0D6A6",
"y c #E1DAA5",
"u c #E1D6A9",
"i c #E4DBAB",
"p c #E8DEAF",
"a c #E4DCB2",
"s c #E9DEB1",
"d c #E5DEB9",
"f c #E8DFB9",
"g c #E6E0A7",
"h c #E7E0AA",
"j c #EAE3AC",
"k c #E6E1B3",
"l c #ECE3B4",
"z c #EEE9B2",
"x c #E6E1BB",
"c c #EAE4BB",
"v c #EDE9BB",
"b c #F0E6B6",
"n c #F2EBB5",
"m c #F1E6B9",
"M c #F3EBBC",
"N c #F8EDBF",
"B c #F5F0B9",
"V c #E7E4C1",
"C c #EAE5C3",
"Z c #EDEAC3",
"A c #EDEACB",
"S c #F2ECC3",
"D c #F8EDC0",
"F c #F2EECA",
"G c #F5F2C3",
"H c #FAF8C7",
"J c #F4F1CC",
"K c #F8F7C8",
"L c #FBFACA",
"P c #EFECD0",
"I c #F1EED3",
"U c #F4F2D4",
"Y c #F8F6D2",
"T c #F4F2DA",
/* pixels */
"@@@@$$$<180tuuuiuuitt6tt55626666yihhpiiiyq65553333;3;;3,3344646666qgqgq6gq66696344113126250tt0088880tusmvFJJJAVkr93;;&;;;;334455",
"@@@$$$><180uuuiiyitttt665666566tyiihihhyyy655533333;33;33344466669q6g6q6qq66966454411422550000tt6808tussZJFUJSVkr51;*;*;,,344445",
"@@@@$$:<280tuuyyitittt5t6565566yyiiiiiyyyq6553433;333,3333444646qqqgqq6e6qq6695554354552000000008800wussZZFJJZZdr9,;**;;,=334455",
"@#$$-->,,20tuyiutittttt5t5566666yyyiiyiyqy55554333;3;;3,44446469qqqqgqgy6g6666565595555t00006t08868t8usmvZFFFZvde99;;;;;,,355555",
"##$*--:<190ttuuyittuttttt66666ttytyityyt0555554333,,3,,3,3343669qqyygeyyeqqq6q69q00q0000005tt5000880uusfxZFFFZxke94;;;;;;3355556",
"*$*---<,18000ytuttttttttt5t5t5560000t0000555533,,,3,;33;,3334466qyyyegyyyqqyqqeqqeqeqeqettt00t0080008usscvvZZvxae99,;;;,33556556",
"----><,125000yttttttttttt66tt5t50008582255443333,3,,;3;3,3344569qeeeeheeeyyyyyeeeikhaieyyt0t00560080tuuakcvvcckie953,,,,35566666",
":::,,,111550000ytt0tttuttttttttt88711111441433333;,,;;3;3,334469qeekkekeeeeyeegkkkkkckkkiit6000558000uuikkxckkae994441495566qqqq",
",,,11114525500q008wwuuuuuuuuut0887<2<<>>,3333333=3;,;3;=3;334499eerraaarhruiiiaklvCvvvvkpii60626058t0ttuuppppiii002222256qqqy6yy",
"4141541455555050wwwwuuuuuiiuut8877<$$$>>=,=,,3,=3=,;;3;3;3;3349eerrrrradrhiiaalccSFSFZvclyi0060250800tttuiiiiity05t55556qqyygggg",
"555555555555555000wwuuusiiiauw07<$$$$$$$=>,,,,,33;;,=;;;;3333999wrrVdrdraeaasflvSFJFJJZvlhiy656050t6t0ttt0tt6ttt00t5t5t6qyyggggg",
"5050q555555550508twuuuuuisiuuu877$$$####*==,3=,,;,;,3;33;;;33469errrdddraaaisscZFJYYYJJvcki606560008t58t05652655505t5tyyyhhhhhhg",
"y006065550555000uuuuuauassupuu87<$$$###**=>,,,,,3;3=;3;;;3,3399eerrrrdddaiaaaflSFJLYYJGZvkyq005556000855255555555000ttyyyppjjjjj",
"tqt00qy060605y0tuuiiuusasusuuw77<$$$@@###>=,,,,,,3;33;3;;3,,3499eerrdrrdaaissffSFFYYYJJSvkhyt660680000525511331355506ttypjhjzzzz",
"y0yyyyt0q000yyiiipspssssusiuu072<>$@$##**=>,,3,,3=3;333;3333449eeerraaaaiaaifslSSFJJJJSZvlayt6008880802233,333,344255uyihjlzzbzn",
"tyytyttyyyyiiyipssssassssuuww88<<<$$$##--=,,,,,333333;3333334999errrraraiiiipsscSDFFFJZClkaiut6tt66882333,,,,,,311155tyipjzbmnnn",
"tiitittuiuiippssslmslsssiiut0521<,$$>$#,,>,,,33,33333333533355669eerehreaiyihkklvSSZSZCmfsssuut00008522,3,,,=,=,111350yijlbbMMNN",
"tttutuipiipspsbsmmmmmmmsiit5522,,,,,,3>,,,,,33333333536333555556e9qeeeegyyihiikklfccmcmfsssuuuuu00082232,,,=,,=,,,1340yiplbMMMNN",
"utuuuipuppsssssmmmDmmmbpiutt44113<,,,,,,3,33333336366355555555565qqqqqqgyyyyiihksfflfffssssuuiuut068221,,,,,=,=,=,,145yiplbmmNNN",
"uuuuuuuuipsssbbmmDmDmblppy55411113113111,333353544553635555555555596q69qyyyyyhiiispssssssssssuuut082222,,,,=,=,=,,,3450ypjbmNMNM",
"tttttuupppppsbbmmDmNmmbpi6624433333244233335335344566556555555556454555666yyyyyyiipiiaappppppiiutt882223,3,,,,=,=,,,350yipbbmbmN",
"ttt8tuuuuppppbbmmmmmmbjpyt62643333333434353335364643356356565535333,33343666yyyyytuiiiiusuupuiitut0t0222331,,,,,,,,3335tiipslmmm",
"8888000tuuuppppbsmlbljppyt644433,3343433335553533545555565555522=3=,=,33355yt66tttttuuuipppusiiiutt0005552114433,3,,3450ttuiippp",
"22888880ttuutpppsssspppyyt66221134,,3,1325535553553333535556523,;==%**=;,35556t6t6ttuuuuuugpiiiiittttt000050422433333445500tw0ww",
"<1222225000tttttyiyppyyy6655553331,,3,344464646433313334556252,==*%%%%&==33556566060t0tttyyppyiytptttttytt665t643533333332522322",
",>,,>>3228500tttyuyuyuyt6tt555433,,,,3334545463353,313445226233=&%+OOO%&==33555605006tttyyyyypypptigpttgiyut6tt505533311,,=>>>>>",
">,>,>,,113285265t5t6t5655565555431,,,,336446664633333144205023>-&+O.XOO%&=;3555555566860tytypygygiipigppiyiyyut6055523,=>>===##@",
"====,,>,13335555554t55t5t656655431,,,,13466656633311,115200852=-%O.. .O%%==,333555555560tyyyyypipgptppptpypiyiyy6605333==#@+++@+",
">===,=,,,,,3214525555500656555551111111465t6665224331134200082<#%Oooo OO%*=,1333355555566yyyygigiggpiptpyiiyiyiyy60553,<=@@+++XX",
",,,,=,,,,1333334525505555656555541111442656tt6t622131155000028<:&Ooo oOO%*=,,,,3331355566yytugiiiiiiiigtuuyut0tyyt66553==*@++XXX",
",33,,3,,,,13334228005505555555441542555t6tttytt55522220t8ttt02<<*OOOoooO%*=;,,333331355666ygigiiiiiiitttttt550t66tyy623,==@++o+o",
"3133333333,131225500tt5y555535555202005tuuyyyytt0t020200ttutt88<:@OOooOO%&*;=,,,=3,33555ttyyguiiiiutttt052622650tyyit663=#@@++oX",
"55554544333333455tttttt555544455050tutuuuiiiiuuuutt8t8uuuuuuuu7<:*#+@++@&**;=3;3,,,,4150tuuiiiiiuttt8t8831111355tyyyyq01,;*@+++O",
"66666655443335590tttttt6552644555tttuuuiiiuiiipuuuutuuuuuuusuu87,:*#@@&&&*===;;;,,,,3350tuuiiiiuuttt888<1,>=,>15tuipiy05,,=@@+++",
"6yy6q66565354559ttuiuuut05234550tttuuuaupiiiusupuuuuuuuuussuuuu81<---&*-*-=;=;;;,=,,31250tuiusuuuu8t22<<>##=#>32tiippi001,-*&@%+",
"gygyqq6554434450ttuuuiyut5265550tuuisuppissspsupusuupusppussuuu871,::----;;;;;,;,,,,31200tuuuuuut88822<>==@**=>15yyppii09,>**&%%",
"yyqgqq666353455ttyuiiuuutt000000ttiiaiapssspsussppupussuppssuuu882,<>>;;;;,,,,;;,,,,132500tuuuuw8882<<<>=@@*#=<15uippiy013=*&&&%",
"yyqqqq65655545550tuiuiieyueiqeieuuuiiiissuspssusuppusuupsuusuuuu921,,<,<;,,,,33,,,,311350000008w8822<<>-#@@%@#,14uippyy01,=**&%@",
"666666666353655t000uuiuaiaaaaaariiiiiiiiuppppppspiusuupuuusssuu8822,1,,4,35544533333332322888888882<>>>#@=%@*=,35tyiiyt513=*%%@+",
"66656555635525540000wweaadxxxxxkaauuuuiuuippsssuippuupuisuuuuuu89821,,54955066555333333231111111<<<,>>--=@=@*=$35tyyyy053>=*%%%+",
"535355555355655555590iraxCCAACCxdiuttttypupppppggiugiuiiuuuuuuw0822144555yyyyyy66553333,,,,,>>>><<1>>>==-#=#==334qqyy054>==&++++",
"333333333663365354179wrdCVPIIAACxaut000ytpgpjpgpiiyttttuuuuuwu809224444tyyyyggyy6665533,,;----*>>>=>,>=>=#==$==5450q504,>*&&%+++",
"=,3,,,335365655541115wedCPITTUPCxat25556tygpgpppgiytttttuuwww80825144466yghjhhhgg665531,,--*****->>=>==>=====,,34565553,==*@%+++",
"=====,,3365666531,,119rdVPTTTTTVxet523366yggjjgygyy6t6008wwww8822114446yyhjjjjjhgy66543,;==****>-==>=>,=,>=,=,335555543,=*@@+%X+",
"#=====,335565553,,,,79rVVPTTTTIVdr95,3456yygpggyyyyt6000u8u888082544556yggjjzjjhhyyq5543,;;=-**-=->==,,>,,,,,3355555531==**@%+++",
"#**@===332556553,;>,:99rVPTTTIAVre91,,3466yypyggyy660500888808821144465yygjjjjjhhyy0q5541,<,;,;,>=,>,,=,,,,333154555433,>***%%%@",
"%%%%*##,325000531;;;<79rVVPPPAVxr91:=,,366ggggpyy66650588888222114443566ygggjjhhiiyyy005555541,,31,,,,,,332212556353531,==*###*@",
"++%%*#=>,25000211>:::79wdVVAAVVr99,;*=,336gyyggyyt65555222882211113355566yggiphhhyyiyyiyeqw0q00523332322222550555556431,,>=>*#>*",
"XX+++@==11800882<<<<<<8wrddxcxre97;$**;,366ygyg666555151211111<31313355666yyyygyyiiiyiippppiiiiyt55523255806000t6565553,,,<>::-:",
"XXXX+@#=,180w087<<$<<<78wuaaare91:$&**;;356ygyyyt66525511111<1331113445356666yyyiyiippssllclzksiyt55555200ttttt8q56555541,,<<>>>",
"XXX++@#=<18088882<$$:::70ttuee59;;&&%&*;,56yyy6y6665551133,,3,3<1133443355565qyttuispssmmnMMMczliy6050000tuuuuuuq5q6555572217<1<",
"XXXX+@@><188w888<<7$:::71500053,;$&@%%;;33566yy66625113533333<33,331344333535550tuiipsmmMNSSDMvljpy05006tuuuuuuuqeqq009599277777",
"XXXX+@*=>178w8887<<<::<11255533,**%%&&*;,356t6t6655555533335333333334431111255500tuipslmMDDDGMnzjpyt006ttuuiuuuuiieqqq0088888888",
"+X+++@#=<1888w8777<<:<111155333=;*&%&&*;,3556665060555555555555335534331,11144200tuiiflbvMSSNMmzjiy60t6ttuuifusaieyeeeewuww88ww8",
"++@%@##,,2888888777<<1<1153533==;*****;;,3466666065066656666666665554441,11,,11200tiiskllmnMnvzkhiyyt6ytuuussusaiaiaiieeuuuww8w8",
"%%@*=#=,,12888887777771733533333;;*;*;;;,,435426555666tt6ygygyyy665554411,,<,1,2200tuiipflllllkpiyyy66ttuiuuufuuaakkkaaaawuuuwuu",
"======,,,1452988778888822551333=,===;;;,3,33464666066tgggggggggggqq55111,,<<,,,2190ttyiippphphpyyyqqqqqytuuissufffffffffduuuuuuu",
",=,=,,,,111258508w8w88t855553333,,33,,,,,3134346566ttgggjbjbzjjggqq60551,,<<<<<<199500qtqqyyyyytyyqqqqy0tuuuuudaffffCfffddaufuuu",
",3333333144445508wwutttt855335533343434,,,,31345506gggjjjnnnnnzjggqq5511,<<<<11111594555055050y666qqqqqtuuuuuufffVCCCCfffuaufuuu",
"3333344344442500tuuuuuttt5655553464444413,1,1445506ggjjjnnnnnnzjggqq055171<1<<<<11,44454444445465666qqtq8uwuaaaffVCCCCCffdasuuuf",
"5545555544445500tuuupuuut65625555555554431,,334466ggigjbnnnNnnnjjyqq50557717771<1113333,,3,4133455560q0tuuwuuuaaffCCCCCCfsssssuu",
"5656655555155900uupuipuutt0626266q6555441,,,,1155ttggpjbnnnnnnblhhqqq595998988871,1;,;,,,,,,3334565t5yq08uuwuawddVCCCCfffsusuusu",
"666665655555500tuusppsuuttt606609q9665553,,,,3350tgipjbbnbbnnblphyqq009w0wwww9985>,;==;,;,,,133535565650w8wwwrrdddfCfffafusuuuuu",
"666y6665505000ttusspsspsiitttt00qqqe05941,,,,,446ttipppbjbbbbbjgyq0e500eiiiaaiu99,;;====;,,13333555550508w8wwwuradfdfffdssuuuuuu",
"y6y6666008tu8uuuussssssspuuutttttttt005211,,,185ttupssssbssspppiit5500qiakkckkiw5,;;**=*;;3344444524645t08tt8uuuuuffsssiuiiqty0y",
"6y6yt6t60t888uuuusssssssppiuiutuuttt000523,,13550tippssssssspiit095000eikcvvvcke99;*****;33,444554652252888tu8wwuaauiuuuuuqq0000",
"yy666tt00tu8uuuusssssmsspppuiuuuuuuut88231,1,3850tuspsssssupput8085290eklvGSZvkr93-*%&**;,1,555555444222888t8u8wwwwwuuttu0005qq0",
"66t6606t8t8uuuusussmssssssppuppuuuu8t00221113155ttuususupuuuutt822229qykvvGGGZzh99-*%&**;,445565444442258888u8wwwwwwtt06000qq656",
"666500560ttt8uuussfssssssusuiiuiuut8tw88231331580tiisuusuuuut888212190ikvvGKGZvhq,;*&&*;;345q5555532422288888w8w88u8u8050q665665",
"55555505088tuuususssssssppppiiuuuuuu8w88221111508tuuusuuuu88t888211290ykzvGGGBzre4;-***;346qqq6655533122888t888w8w8808005566q66q",
"33333232088ttuuussssssssppuuituuu8t80005222218258ttt8uuu8u888222121150yhkvvBvvkh94,;*;;,45qqqqy655353425888888w888w88t20qq6y66y6",
"<,=,,1123288tuuuusfsssssupuutttttttt00852222518888t8tu8888882221111250qikkvvvzkew5,;;;;359qqyyyq655554228u888u88888805000q6yyygy",
"======<312250tuuussssssuiuttt608t0000580258222882888882222211111513455qyhkkkzkkqq4,1;,356yyghgyyy55555519080888882885500yyygygyg",
"##%====,,,3220ttusussussutt6666650055085208088828222222211111111,34450qqyggkgee60553,556qyghhhggy665555590t8www8885285056yyigggg",
"@@@@#*#==232500tuuusuuuutt008555255555550888888822<213<<111,11,34555555qqeyyyey60554550qyhhjjhgyy60555550800w888088258ttyyyggjhj",
"+%%%@*#=>=32200tuuuuuuuut65585555355585508t8085822<<<<<3,,,,1333435555q56qqyqqq6q5550qqqyhjjjjhgy66655000wuuuwww8888805tyyigggjj",
"+++@@@===,22585288tuuu8800005553444425558t8w8888211<<<,,>,,,,33255550q6qqqqq6qqqq65qqqyyhhjjjhggyy565600uuuuuaw8088820056iigjjjj",
"&%&@*=*=>,2352588888888825555552444431588tttut88811,,==<,>,2232559qqqqqqqqqqy6qq66qqqqygghhjgggyy666460euaaaaaaww088555tyygggggj",
"*****=>,,32525228<<<<<7<2205552543,,<3158t8uuut8811<<,,,,1,,,25800qqyyyqqgqqqqyq6qqyyyygghggggg666666tyiaddfddauu05852556yyggggj",
"====>=,,2222222<>>$:$:<<122000554,,,,318tuuuputt8213,,<,,<132288qeyyyihhyggggggygygyyyyyyyyyg66666655tiiaxCCCVfduu0524566yyygygg",
",;,,,,41599852<>$#+++$$$:77w00t23<=,>,350wuisuuu08321,,>112288t0yiiijphjgjggjgggggyyggyy666y666665566qrkxCVAAAVxaw89535566qqggqg",
"13444555500882>-$++oo++$$788t8223,>==,<25uussuiu0023,111112288ttiipsklljjjljjjjgggggyyyy666666563645qqkxZAIIPPZVda09355556666qqq",
"55555500000081>-+++ ooo$$88utt021,====<50tiispiut6533321<2228utuisslslmbjbjzjjjjjgjgggyy666655533656qerxVIITUPAVxe00533335666666",
"5656q5q0ttu081>#++   oo+$$7wtu821,>#=>,10tisipsut5052332222888usiaslmbzbnbnjbjzjjgggyyy66663533533696ekvZIITTUPVxee5333335365566",
"65696q0qtwu082<$++    X+$888ut82,>===><50uupsiputt65232328800tuusssllmbbnzzzzjzjjjgyyyg66666366333659ekxCPUTTIPVxeq9533333443534",
"56665qeqtuuwu7<-@+. .o+#$27888811>>==>,20tupipput5556522228888uuiilllbblzzjzjjjjgjgyyy6g6666663363356erkCAPPIPAVxe9533,3,,333,,3",
"55655qq0ttu0u8<<#@+oo+@#$<278887<,==>,125tyiiiuut66232222880tttuispllljlzjjjjjgggggyyyyygg6gg66663639qerxVAAAVVxrq933,;,,=;;;;;;",
"4434559qwtuuu821,#@@++##<<2287<7<,<,,,3100ttiyty5626363552588tttiipppljjjjjjjjggyggygyygggggggg666644qqrrxxVVvxree553;;====*=***",
",,3,32500wuuut881<=#===#$<<72<2<<>,3,423500t6t666556552525252tttuyipjhhhhhhggyyyyy66yyggjjjzjggg6644449eerdrdrret03,3,==***@&&@@",
",,,,33280wuuuutt2533,,>>1<<<<<<,1134445255500000t56262555255262ttyiyiyiiyiyyyyyy666666ggjzznzzzg666434469weeeee9523,==#=&%++++++",
"=,,,,1380ttuupttt6653331<<<$$<<<11132536555055555555555552525555ttyyyyyyyyyyq666656666gjzznBnnzjg653444955509999213,===@&@++++++",
"==,=<12280uuuuiuyyt66522<<<<$<<<,12636665535525555t6655525323555555606yyy5y6q65564466gyjznBBBBzjg6633;3;1111343333,,,==@&+++.oo.",
",,=,<31200uuuiiigtyg665531>$>><,22550565525332555655552353333333455656655665q555424656yjjnBBBnnjh6533,,,3<133333,,,,==#=+++++o.o",
",,,135220tutpuiigyyyy60511<2<<<1225t6555531333335565655233,3,,333333455555556555344666ygjznBnnzjhq63,,,43<333,<,>,,===##@+++oo.+",
"112325200ttiutyyyyyyy6658881222505656655533133325556552333,>====,,1,3344555555556444266ygjzzzzjgyq594493311113,3,>>,==###+@+++++",
"00080000tttuyiytyyy6t6050058500505ty6655531,335555t665233===*=====,,1,134455555444454606ggjjgjggqq99944985512134,,,=>==###@@@+++",
"ttttttttttt0yyqqq6q56655tttttyt6yqyq665533334155555y5543,==*%%*****=,=,333555555533555506yypypyte90592958802222111,,==##=##***%&",
"iiiiiiitiyty000q555555qy6yyyyiyyyyy6q655533,,4155qqqy541==&%%%+%%**==>=,323555555253355565666t66qq090000w0tt0t5211,=,=,==,=#==*=",
"pspsiiiiytqyq6555454555qyyppgjppygy6655553,,1,,550q56641==*%+++++%**#=>,1355555555325353350555509000t8uuuuuut8t213,===<===,>=>=,",
"ssssppppiyyqq5554443355qyyigjggigyyy5665343,,,55066q5513=*%%+++++%*##==,13555605555555213333332550wwuuuuuuuuut8524,,,=,=,,,,,,,3",
"smbsbpppiyyty55443,31355yyypppgpyy6665554,3,3,4556066543>#*%@%@@%%#*#>=,125606600555523333<,1132200twuuuiuiiut005111,=,,,,,,21,1",
"mssspspiiiyy005243,,,135666yyyy6yy66655331;114,555555613,>###@@#*#**->,2250t6ttt0000582323331322000tuuuuiuuuuu00551111,111111111",
"ssssspppiyyyy55511,,,,,34446t666656635333;,31;34555065223>,$==$=--->>,1206ttugiiyt0005581331332550ttuyuuuiuut0t00818332311111111",
"ssppppppiiiytt5541,,=,=,>33113333533533,113;;33435355462521113<<>>1><2280tigippuiutt00055213235500tyuuyuyttu0t000055822222212111",
"pppiyiaiiiyiut52943;=========,=,,,1,33333,,,,,,33332256658088888228228ttuppsspsspiuuutt55522260505yyyyytty0t0000888u88u822<22<2<",
"piiiiipiiiiiutt59,,;=***@@@@@&**=>,,1,,3,,,,,,,,33333520tttiuuuu088888tuussssbsspppuuuttt5652666yyyyyyty56555000uuu8uu888222<2<2",
"iiuiiiiiuiiiuut8,,;;***%@+O++++@===,,,,,,,=,,,,,,,33556ttgpppppuut8ttuuusssbmmsbssppiutt665660666yyyyy6ty5555050uuuuuu888882<8<8",
"0yyteywiiiauutt8393;**&+OOXX.X++@&==,,,3,,,,,,,,,,11320tipssmssspuuutuusssmmmbmssspuuitttttt666yyyyyy6t6555525508uuuuuuu88828<8<",
"qeye0ieiiuiiuuw049;;*&&+OX....++@*=,,,,,,3,,,,,,,,,1320tipsbbbsssuuuuuuussbbmmmsssppuuttt6666yy66yygy666554445208uuuuu88888888<<",
"e0weqewiuauuuu0093;;=*&+OX....o+@*>>>,2,,,,,>3,3,,31556yppsbbsspuuutuuusssbmmmsspp88ttt806t6666yygygyy66551111208utuuuuu88888<88",
"e0eqwueuuuuawww89,3;=*&%+O.X.o++@*><,,<,1,,,3>3>,,31356ygppssbspuu80u8uuissbsspuuut808225556t66yyyyiyy66521,1,22888tuuu8u8888888",
"0iuti0uuwuwww8884111;=*&%++O++@@*>,,<2111,,,>3<<333355ttipjbsspguu8878uuiisspspp88221<11225666t6yyyyyyt5441,,,<,22888u88u88u8888",
"tuuuuwuuwwwwu8985111,==@%@%+@+@=-><1112112<,1111,445556yyhpjppiyt8811550tipypyt022>>>=>>1335566tyiguput821<>>>>>1222258800u8888u",
"uuuuuuwwww8w808811,;,=====@@%=#=<,1288777<7<<1115445556yyyihyyy02<1><<185tyiit053>---#*=>,33266ytiuuuu8821<<->>>>,,122580888uu8u",
"uuuuuwuuwww88881115,,,====**#==,,188888887222<111555666yygyyyy0513>>>>135t0ttt53>**#@##*=>132566tyiguuu882<$:$-:>>>,2,2288tuwuuu",
"uuuuu8uuw78w8882851133,,=====>,322999008877<21221555656qyyyyyq551,,$=>>12566651<>*+++++#-=,3250ttiupuuu87<<>->->=>>,,,32808t88uu",
"utuuut88ww888822513113,=;;==>,319900www9887222121555566qyyyy66553,=$<,<35566055<>#+++++**==32260tiuguu887<<$---$===,,,128888uwww",
"tuu88tut88w80585152413,,;=;;=,1100iiiiiew082<212155455666yyyyt55,,====,125tt655,=*@++++%-=,1260ttuuuuuu872<<:---=>==,,,188888888",
"tt8ut0w8w88w999551413,,,;==;-,12qeiaaahru088721115,,4456qyyyytt513<<<=135tuyu553>*%@++@**>,22260tuuputu8722<:>-:>>=,=,,122877788",
"888t800000w8005995513,,===**-,10eiklclkjiuu88211,,,33445qyyyyyt5513=,3305yyyytt1,=*%@##*=,33260ttttutww8722<>,,,>>,,,,,32$<77777",
"85020800qqq9eq0546443,;=*****;4eqkkvvvvkpiu5t41,,<,,,,455uyyiyyt95431450uyiiiyt51>=****=>,252800tttutut851111,,,3;;33;3;1<,><<<,",
"552555509qqqeqq5949433;=*****;39kkvGGvvvkpyt543,,;;;;,45tuipppyt0544455qypppjiy023>=**=>,322000tttttt8tt05911114,33;;3;;=>,=>=*>",
"22225550qqqyqqq696443;;=**%&*;39ezvGGGvvzhyy623,;;==;;,90tiippiyy555455yipjlssit23,>>>=,32222t808ttt0t889553514443113,3;>>=#****",
"112325556qqqqqqq66443,;*%%%%*;3ekvvKKKGBnkyy643,;;===:,5tiispspiyq055qyyppsllsiyt23,>=,3122200t0tt8tt00666955544443333;;==@=#**#",
"13,323556qg6gqqq66444;;*&+%%&;9ekvGKKLKBvkhy633,==***;,10uisskpiiq505yyipjslmliit22,>3>1322200tt8tt00t805956635554433;;;=***&&%&",
",11232566q6gqqgq64544;;*&%%%&;49kvGKLLKGnzhy663,=****;<1tuissspiytq65qyippmllspit533,>312220088tt00tt000q66565555344333;***&@@@%",
",13333556qqggqqq6444,;;*&%%%%;9ekvGLLLHBvzhy633,==***;,58ussmppiyy066yyiplmmmlpit5233,31222t0tt0t0t000066565566454433;;==*&&%%@+",
",,3332566qqqgq6666644;;&@%%%%;49zvKLLLHGnzhg633,=**&*-<1tuisssppiyy66yyipllmlmpit2313,3222208t00t0tt5t006566634655533,3=***&+%+%"
};
